<svg viewBox="0 0 800 600" xmlns="http://www.w3.org/2000/svg">
  <defs>
    <style>
      .title { font-size: 32px; font-weight: bold; fill: #38bdf8; font-family: Arial, sans-serif; }
      .item { font-size: 18px; fill: #e5e7eb; font-family: Arial, sans-serif; }
      .check { fill: #10b981; }
      .box { stroke: #38bdf8; stroke-width: 2; fill: #020617; }
      .header { fill: #38bdf8; }
    </style>
  </defs>
  
  <!-- Background -->
  <rect width="800" height="600" fill="#0f172a"/>
  
  <!-- Title -->
  <text x="400" y="50" class="title" text-anchor="middle">Mobile to Desktop Kit</text>
  <text x="400" y="85" class="item" text-anchor="middle" font-size="20">Checklist Oficial</text>
  
  <!-- Celular Section -->
  <rect x="50" y="120" width="280" height="180" class="box" rx="8"/>
  <rect x="50" y="120" width="280" height="40" class="header" rx="8"/>
  <text x="190" y="150" class="item" text-anchor="middle" font-weight="bold">📱 Celular</text>
  
  <circle cx="75" cy="185" r="6" class="check"/>
  <text x="95" y="192" class="item">Android 8+</text>
  
  <circle cx="75" cy="230" r="6" class="check"/>
  <text x="95" y="237" class="item">Wi-Fi funcionando</text>
  
  <circle cx="75" cy="275" r="6" class="check"/>
  <text x="95" y="282" class="item">Bluetooth funcionando</text>
  
  <!-- Tela Section -->
  <rect x="470" y="120" width="280" height="180" class="box" rx="8"/>
  <rect x="470" y="120" width="280" height="40" class="header" rx="8"/>
  <text x="610" y="150" class="item" text-anchor="middle" font-weight="bold">📺 Tela</text>
  
  <circle cx="495" cy="185" r="6" class="check"/>
  <text x="515" y="192" class="item">Smart TV + Miracast</text>
  
  <circle cx="495" cy="230" r="6" class="check"/>
  <text x="515" y="237" class="item">OU Monitor + TV Box</text>
  
  <circle cx="495" cy="275" r="6" class="check"/>
  <text x="515" y="282" class="item">Qualquer resolução</text>
  
  <!-- Espelhamento Section -->
  <rect x="50" y="330" width="280" height="180" class="box" rx="8"/>
  <rect x="50" y="330" width="280" height="40" class="header" rx="8"/>
  <text x="190" y="360" class="item" text-anchor="middle" font-weight="bold">🔌 Espelhamento</text>
  
  <circle cx="75" cy="395" r="6" class="check"/>
  <text x="95" y="402" class="item">Miracast nativo</text>
  
  <circle cx="75" cy="440" r="6" class="check"/>
  <text x="95" y="447" class="item">OU AirScreen/LetsView</text>
  
  <circle cx="75" cy="485" r="6" class="check"/>
  <text x="95" y="492" class="item">Sem fio (wireless)</text>
  
  <!-- Controle Section -->
  <rect x="470" y="330" width="280" height="180" class="box" rx="8"/>
  <rect x="470" y="330" width="280" height="40" class="header" rx="8"/>
  <text x="610" y="360" class="item" text-anchor="middle" font-weight="bold">⌨️ Controle</text>
  
  <circle cx="495" cy="395" r="6" class="check"/>
  <text x="515" y="402" class="item">Teclado Bluetooth</text>
  
  <circle cx="495" cy="440" r="6" class="check"/>
  <text x="515" y="447" class="item">Mouse Bluetooth</text>
  
  <circle cx="495" cy="485" r="6" class="check"/>
  <text x="515" y="492" class="item">Compatível com Android</text>
  
  <!-- Footer -->
  <rect x="100" y="550" width="600" height="40" fill="#38bdf8" rx="4"/>
  <text x="400" y="575" class="item" text-anchor="middle" fill="#020617" font-weight="bold">✓ Todos os itens = Kit Funcional</text>
</svg>